<!-- icon666.com - MILLIONS OF FREE VECTOR ICONS --><svg version="1.1" id="Capa_1" xmlns="http://www.w3.org/2000/svg" xmlns:xlink="http://www.w3.org/1999/xlink" x="0px" y="0px" viewBox="0 0 512 512" style="enable-background:new 0 0 512 512;" xml:space="preserve"><path style="fill:#6CD359;" d="M467,211h-21.4c-4.801-20.4-12.9-39.6-23.699-57.301L436.3,139.3c17.699-17.701,17.699-46.199,0-63.6 c-17.1-17.1-46.5-17.1-63.6,0l-14.401,14.399C340.6,79.3,321.4,71.199,301,66.4V45c0-24.901-20.099-45-45-45s-45,20.099-45,45v21.4 c-20.4,4.799-39.6,12.9-57.299,23.699L139.3,75.7c-17.1-17.1-46.8-17.1-63.6,0c-17.699,17.401-17.699,45.899,0,63.6l14.399,14.399 C79.3,171.4,71.201,190.6,66.4,211H45c-24.901,0-45,20.099-45,45c0,24.899,20.099,45,45,45h21.4c4.801,20.4,12.9,39.6,23.699,57.299 L75.7,372.7c-17.699,17.399-17.699,46.199,0,63.6c17.1,17.098,46.5,17.098,63.6,0l14.401-14.401 C171.4,432.7,190.6,440.799,211,445.6V467c0,24.899,20.099,45,45,45s45-20.101,45-45v-21.4c20.4-4.801,39.6-12.9,57.299-23.701 L372.7,436.3c17.1,17.098,46.8,17.098,63.6,0c17.699-17.401,17.699-46.201,0-63.6l-14.399-14.401 C432.7,340.6,440.799,321.4,445.6,301H467c24.901,0,45-20.101,45-45C512,231.099,491.901,211,467,211z"></path><path style="fill:#00C37A;" d="M512,256c0,24.899-20.099,45-45,45h-21.4c-4.801,20.4-12.9,39.6-23.699,57.299L436.3,372.7 c17.699,17.399,17.699,46.199,0,63.6c-16.8,17.098-46.5,17.098-63.6,0l-14.401-14.401C340.6,432.7,321.4,440.799,301,445.6V467 c0,24.899-20.099,45-45,45V0c24.901,0,45,20.099,45,45v21.4c20.4,4.799,39.6,12.9,57.299,23.699L372.7,75.7 c17.1-17.1,46.5-17.1,63.6,0c17.699,17.401,17.699,45.899,0,63.6l-14.399,14.399C432.7,171.4,440.799,190.6,445.6,211H467 C491.901,211,512,231.099,512,256z"></path><path style="fill:#FFDA2D;" d="M166,331c-24.814,0-45-20.186-45-45s20.186-45,45-45s45,20.186,45,45S190.814,331,166,331z"></path><path style="fill:#FFBC33;" d="M316,361c-24.814,0-45-20.186-45-45s20.186-45,45-45s45,20.186,45,45S340.814,361,316,361z"></path><g><circle style="fill:#FFDA2D;" cx="166" cy="196" r="15"></circle><circle style="fill:#FFDA2D;" cx="226" cy="376" r="15"></circle></g><circle style="fill:#FFBC33;" cx="376" cy="226" r="15"></circle><path style="fill:#FFDA2D;" d="M286,151c-11.7,0-22.2,4.499-30,11.7c-9.3,8.099-15,20.099-15,33.3s5.7,25.199,15,33.3 c7.8,7.2,18.3,11.7,30,11.7c24.901,0,45-20.101,45-45C331,171.099,310.901,151,286,151z"></path><path style="fill:#FFBC33;" d="M331,196c0,24.899-20.099,45-45,45c-11.7,0-22.2-4.501-30-11.7v-66.6c7.8-7.202,18.3-11.7,30-11.7 C310.901,151,331,171.099,331,196z"></path></svg>